<?xml version="1.0" encoding="UTF-8"?>
<!DOCTYPE svg PUBLIC "-//W3C//DTD SVG 1.1//EN" "http://www.w3.org/Graphics/SVG/1.1/DTD/svg11.dtd">
<!-- Creator: CorelDRAW -->
<svg xmlns="http://www.w3.org/2000/svg" xml:space="preserve" width="210mm" height="297mm" version="1.1" style="shape-rendering:geometricPrecision; text-rendering:geometricPrecision; image-rendering:optimizeQuality; fill-rule:evenodd; clip-rule:evenodd"
viewBox="0 0 21000 29700"
 xmlns:xlink="http://www.w3.org/1999/xlink"
 xmlns:xodm="http://www.corel.com/coreldraw/odm/2003">
 <defs>
  <style type="text/css">
   <![CDATA[
    .fil0 {fill:#F7F7F7}
   ]]>
  </style>
 </defs>
 <g id="Layer_x0020_1">
  <metadata id="CorelCorpID_0Corel-Layer"/>
  <g id="_51815838240">
   <path class="fil0" d="M10328.86 11869.37l12.69 0c2.9,-34.68 286.52,-616.15 334.6,-719.91l336.68 -717.82c91.58,-197.66 192.14,-423.96 290.11,-618.3l143.97 -307.05c17.12,-33.91 30.83,-67.91 48.75,-103.7 118.23,-236.13 216.58,-482.63 336.62,-717.89 29.67,-58.14 22.87,-49.01 12.05,-122.2l-78.9 -524.58c-29.69,-175.48 -49.67,-347.97 -79.02,-524.45l-432.78 -2883.2c-7.43,-48.05 -26.44,-231.13 -41.79,-263.13 307.62,25.59 593.9,84.26 886.66,167.83 262.21,74.86 511.61,185.13 754.39,306.48 251.1,125.52 487.14,286.73 701.13,467.73l165.45 152.17c215.5,215.48 354.48,382.77 525.04,637.45 161.16,240.66 287.39,510.93 385.75,783.1 74.59,206.39 136.84,431.72 183.94,667.28 23.38,116.83 41.76,233.41 58.57,360.71 9.72,73.69 4.43,119.07 4.43,192.48 0.1,916.97 -12.7,1830.73 -12.7,2750.62 0,286.85 -6.36,552.99 -6.36,838.52 0,283.74 0,567.47 0,851.22 0,283.53 -6.35,551.62 -6.35,838.52 0,283.74 0,567.49 0,851.23 0,284.87 -6.35,551.55 -6.35,838.53 0,283.74 0,567.48 0,851.23 0,286.77 -6.36,555.62 -6.36,838.52 0,1691.27 -12.69,3384.58 -12.69,5075.6 0,186.57 11.97,211.18 -45.31,380.32l-52.31 157.32c-93.95,276.05 -226.39,539.79 -375.22,787.26 -93.24,155.06 -195.93,300.86 -303.97,445.63 -30.52,40.91 -60.76,77.97 -92.58,117.05l-120.06 140.39c-8.69,9.87 -15.87,16.03 -25.41,25.4 -21.47,21.1 -29.68,36.42 -50.67,57.33l-216.16 209.45c-111.64,103.3 -229.03,199.39 -350.9,290.7 -121.36,90.94 -250.29,177.93 -383.09,252.15 -24.18,13.5 -46.21,27.08 -68.22,39.78l-69.51 38.49c-141.8,73.81 -286.26,141.08 -434.76,200.47l-133.37 50.86c-17.53,8.93 -20.02,20.81 -22.93,40.59 -1.95,13.25 -3.26,26.05 -4.25,33.85l-165.11 1257.85c-13.17,90.29 -21.9,173.84 -34.82,263.74 -10.54,73.29 -68.78,467.65 -68.78,534.71 32.22,0 34.62,6.35 69.89,6.35 981.3,0 1824.95,-132.86 2744.28,-387.46 367.73,-101.85 874.22,-283.87 1211.1,-446.89 130.93,-63.35 332.58,-148.59 448.09,-218.92l212.8 -117.52c73.29,-40.99 137.3,-78.5 208.83,-121.49l202.36 -127.99c105.01,-64 197.94,-134.03 298.43,-203.4 129.4,-89.31 252.13,-187.87 373.71,-286.95l355.86 -311.13c29.99,-30.15 55.74,-49.28 85.77,-79.41 98.92,-99.24 235.23,-229.23 327.1,-333.55 51.77,-58.8 109.52,-117.27 157.27,-179.41l75.33 -89.83c25.11,-31 48.83,-58.85 75.17,-90l144.43 -185.89c144.94,-193.37 274.17,-389.46 405.08,-592.27 44.38,-68.75 81.01,-135.3 123.81,-206.52l118.47 -211.85c19.43,-39.54 36.99,-67.63 57.16,-108l163.05 -332.44c181.93,-356.89 426.76,-1068.03 532.3,-1456.02 73.14,-268.92 135.59,-533.67 190.29,-807.04 58.15,-290.57 65.11,-315.35 65.11,-601.9 0,-225.69 6.35,-431.52 6.35,-654.3l6.36 -1988.31c0,-1758.66 25.4,-3522.35 25.4,-5278.88 0,-220.22 0,-440.43 0,-660.66l6.35 -990.98c0,-104.42 -1.44,-217.1 -12.69,-317.63 -43.03,-384.29 -128.51,-742.96 -219.78,-1107.89 -22.07,-88.26 -47.25,-173.09 -73.23,-257.09 -12.92,-41.79 -24.25,-83.54 -38.08,-127.09l-84.23 -252.44c-106.71,-320.61 -235.85,-639.24 -385.2,-942.47l-135.38 -277.51c-86.63,-160.85 -175.6,-323.54 -269.88,-479.72 -188.05,-311.54 -390.91,-599.96 -611.03,-881.8l-148.07 -182.25c-7.57,-9 -10.88,-11.34 -17.99,-20.14 -67.64,-83.82 -147.26,-159.4 -214.15,-243.22l-164.5 -172.17c-53.51,-53.49 -109.79,-116.29 -165.22,-165.1l-171.51 -158.81c-235.97,-207.81 -479.62,-410.66 -739.68,-587.99l-453.52 -296.06c-19.19,-12.71 -33.21,-18.79 -52.27,-30.33 -35.86,-21.7 -67.87,-39.42 -104.02,-61.15 -35.73,-21.47 -70.1,-38.05 -105.53,-59.61 -103,-62.67 -217.17,-116.27 -325.21,-170.29l-167.37 -80.38c-322.63,-154.88 -671.14,-296.74 -1014.99,-401.6 -256.74,-78.29 -509.89,-163.1 -772.62,-218.37 -182.53,-38.4 -363.83,-82.86 -550.58,-116.43 -437.58,-78.66 -881.69,-132.72 -1325.32,-167.49l-234.8 -12.95c-37.06,0.33 -46.41,-4.89 -76.08,-6.5 -26.71,-1.44 -55.91,1.05 -82.83,0.24 -32.52,-0.98 -39.06,-6.72 -75.79,-6.78l-629.12 -6.13c0,-34.58 -5.25,-69.88 -9.98,-104.36l-80.82 -732.3c-16.93,-133.32 -30.15,-283.32 -47.09,-416.63l-46.16 -417.58c-11.97,-138.9 -30.13,-277.16 -45.78,-417.94l-139.75 -1257.79c-30.52,-274.71 -67.12,-557.43 -93.56,-833.9 -20.11,-210.08 -52.44,-418.21 -69.91,-628.85 -28.59,-344.65 -85.37,-703.15 -115.08,-1047.43 -18.5,-214.45 -51.35,-414.22 -69.87,-628.89l-17.61 -153.9c-3.29,-34.63 7.15,-34.06 -13.97,-49.55 0,118.8 -49.67,415.21 -63.52,539.95 -40.55,364.75 -90.26,723.57 -134.58,1085.12 -66.43,542.11 -140,1085.11 -202.65,1626.83l-134.8 1084.87c-59.21,442.16 -108.89,905.47 -167.67,1350.57 -12.26,92.86 -23.62,180.8 -33.67,271.24 -19.96,179.58 -46.01,365.78 -68.04,541.8l-100.73 814.02c-38.12,275.4 -62.74,539.13 -100.78,813.97 -50.23,363.02 -83.99,715.7 -134.26,1079.05l-66.85 543c-16.49,175.06 -46.79,367.45 -68.14,541.7 -44.28,361.34 -94.03,720.45 -134.56,1085.09 -39.81,358.24 -90.47,725.29 -134.57,1085.12 -21.7,177.11 -49.31,364.07 -68.14,542.38 -5.07,48.11 67.14,165.92 90.48,212.6l1118.04 2236.06c21.1,42.21 393.3,767.44 404.44,815.23zm-749.59 15125.17l47.18 416.54c19.06,139 31.96,281.81 46.97,416.77l161.08 1458.79c7.37,66.4 18.19,142.51 24.09,210.93 29.14,337.68 77.8,706.24 115.66,1046.85l232.04 2086.6c35.31,278 57.35,563.15 92.66,841.15 7.67,60.28 23.56,149.2 23.56,211.49l6.35 0c0,-36.46 10.77,-96.13 16.31,-136.15l50.88 -406.49c12.76,-93.62 22.51,-183.71 33.28,-271.63l101.67 -813.08c20.17,-184.49 42.31,-359.59 66.56,-543.27 47.09,-356.59 85.01,-722.55 135.1,-1084.57 12.79,-92.4 23.83,-182.15 33.97,-270.94l66.81 -543.03c12.75,-92.18 23.47,-183.09 34.21,-270.72 88.97,-726.06 180.15,-1444.1 269.13,-2170.21l101.01 -813.73c10.15,-88.81 21.18,-178.54 33.97,-270.95 50.1,-362.03 88.01,-727.97 135.1,-1084.57 24.26,-183.69 46.39,-358.77 66.56,-543.27 19.39,-177.43 47.79,-362.99 68.22,-541.62 41.46,-362.63 93.02,-722.66 134.46,-1085.2l202.21 -1627.3c7.98,-69.06 66.91,-477.14 67.27,-541.47 0.13,-23.74 -32.46,-75.51 -45.56,-101.71 -18.2,-36.4 -32.62,-65.25 -50.81,-101.63l-709.37 -1425.07c-136.78,-273.56 -269.77,-539.57 -406.55,-813.12 -12.86,-25.72 -385.87,-790.63 -410.78,-808.87l-336.78 717.72c-66.88,135.81 -124.38,275.43 -192.64,410.85l-143.97 307.06c-17.18,34.02 -30.58,67.87 -48.69,103.77 -18.31,36.28 -30.39,67.36 -48.74,103.71l-95.24 203.33c-68.11,135.27 -124.26,275.75 -192.69,410.79 -68.47,135.08 -124.34,275.91 -192.67,410.81 -17.29,34.14 -30.63,67.81 -48.71,103.75l-143.98 307.03c-18.1,35.88 -31.47,69.88 -48.7,103.77 -30.85,60.68 -25.51,41.4 -14.64,116.23 51.21,352.86 103.64,696.57 158.04,1048.94 54.62,353.83 105.05,696.02 156.99,1049.98l196.98 1308.53c14.35,99.76 117.34,731.22 118.8,795.96 -696.36,-57.94 -1213.94,-244.39 -1759.64,-539.96 -96.6,-52.32 -196.92,-114.75 -285.83,-177.89 -204.93,-145.51 -386.59,-302.67 -563.85,-477.93 -22.21,-21.96 -31.67,-38.61 -53.9,-60.46 -76.19,-74.9 -144.3,-164.15 -208.09,-249.28 -133.99,-178.82 -253.4,-367.04 -353.63,-567.49 -222.91,-445.82 -357.88,-924.41 -427.38,-1421.18 -29.99,-214.45 -6.69,-452.24 -6.69,-673.01 0,-154.57 0,-309.15 0,-463.72 0,-158.06 6.35,-296.86 6.35,-451.03l6.35 -2305.94c0,-310.2 6.36,-602.41 6.36,-914.75 0,-307.03 0,-614.07 0,-921.1 0,-158.18 6.35,-295.21 6.35,-451.03l0 -1391.18c0,-156.29 6.34,-292.9 6.34,-451.03l0 -1384.83c0,-158.05 6.37,-296.86 6.37,-451.02l0 -1391.19c0,-307.51 6.34,-602.8 6.34,-914.75 0,-307.04 0,-614.07 0,-921.1 0,-91.69 1.13,-1099.55 9.85,-1139.96 35.73,-165.75 117.36,-361.42 181.63,-517.13 155.07,-375.67 386.58,-759.35 645.58,-1075.93l161.22 -188.17c20.24,-25.35 31.59,-36.83 54.65,-59.68 58.79,-58.25 104.06,-121.4 170.42,-172.63 32.59,-25.16 56.71,-57.69 88.92,-82.57l420.98 -334.98c145.63,-108.08 344.05,-222.05 504.93,-301.84 27.67,-13.73 48.4,-25.25 76.19,-38.13 106.91,-49.53 212.28,-99.92 324.25,-139.49 120.14,-42.47 99.44,-10.7 113.86,-121.19 53.11,-407.03 112.91,-814.71 162.16,-1222.67 16.85,-139.55 33.67,-271.15 53.9,-409.82l39.7 -303.33c5.28,-36.33 8.24,-73.87 15.53,-105.17 -32.21,0 -34.62,-6.35 -69.88,-6.35 -700.17,0 -1308.61,64.15 -1964.5,195.33 -364.25,72.85 -582.82,139.79 -927.2,235.29 -200.49,55.58 -430.79,139.55 -622.11,216.41l-234.98 95.36c-41.52,17.01 -74.37,31.14 -115.66,49.49l-569.64 275.24c-19.74,10.28 -30.55,18.73 -52.79,29.8 -21.63,10.78 -34.37,16.87 -53.9,28.68l-316.8 185.05c-239.51,142.49 -467.19,305.2 -688.18,474.32l-544.65 465.37c-82.14,82.22 -181.42,158.42 -252.01,249.83 -22.17,28.72 -55.31,57.44 -81.58,83.58 -17.81,17.73 -22.02,27.42 -37.95,44.65 -14.32,15.48 -27.12,25.64 -41.45,41.13l-268.27 316.15 -324.98 430.95c-140.23,188.94 -266.22,414.97 -387.77,615.93l-87.66 160.08c-10.22,20.74 -18.58,32.19 -29.71,52.87 -40.23,74.7 -74.04,148.18 -112.2,224.48 -188.17,376.35 -351.84,780.91 -479.91,1184.43 -152.96,481.92 -281.48,971.02 -363.76,1472.09 -40.26,245.14 -24.49,229.55 -24.49,483.71 0,222.33 0,444.67 0,667.01 0,223.98 -6.36,432.98 -6.36,660.64 0,222.35 0,444.69 0,667.01 0,229.92 -6.35,439.3 -6.35,667.01l0 997.34c0,112.61 -6.35,212.57 -6.35,330.32l0 1003.7c0,118.17 -6.36,215.88 -6.36,330.32l0.02 1162.5c0.13,62.24 -6.41,101.03 -6.36,165.16l0.21 1245.29c-0.05,38.17 -6.38,46.07 -6.82,82.11 -1.6,129.72 10.06,1249.1 -2.43,1331.6 -20.23,133.61 -6.89,335.44 12.61,475.55 7.51,54.11 13.91,102.26 20.73,150.76 61.93,439.13 177.54,937.26 316.27,1354.43 90.44,272.01 245.42,716.97 368.7,971.66 37.98,78.42 69.12,151.32 105.93,230.76 64.19,138.55 148.86,305.77 226.87,440.12l247.1 419.9c21.22,35.69 42.9,65.32 64.2,100.99l132.12 198.18c123.05,165.67 227.35,318.68 361.07,483.82 86.01,106.23 171.07,213.85 263.95,314.12l282.82 301.61 479.57 441.53c162.82,151.43 517.16,408.38 712.68,538.75l200.76 129.56c358.75,214.24 704.79,407.58 1100.44,576.62 844.52,360.81 1708.91,580.59 2629.28,712.11 98.71,14.11 192.34,22.6 293.81,36.51 213.02,29.2 468.71,41.27 690.03,59.56 76.81,6.35 166.41,0.84 242.79,11.3 53.18,7.29 108.93,-3.35 162.5,2.67 136.79,15.35 359.45,5.42 502.78,5.42zm-16090.75 -12266.57c16.68,22.78 -4.49,5.36 24.49,13.64l209.81 57c78.21,22.76 153.24,46.87 231.82,73.07 157.65,52.57 302.11,103.87 452.28,163.93 143.21,57.27 291.53,113.58 428.25,181.57l105.38 47.08c88,36.32 269.45,130.61 362.74,177.22l539.24 299.28 744.73 487.64c150.94,102.78 296.12,215.86 435.18,333.47l249.45 207.92c28.89,22.48 54.08,47.53 80.43,72.03l552.86 527.05c15.89,16.51 18.8,25.04 34.7,41.55 13.85,14.39 24.1,23.86 38.23,37.98l149.4 161.88c16.04,16.51 18.67,25 34.71,41.52 16.73,17.22 20.63,20.1 36.15,40.08l478.24 595.31c23.38,31.05 41.69,57.3 64.42,88.04 22.42,30.34 41.11,58.61 63.52,88.94 23.44,31.69 41.98,61.74 65.46,93.35 21.95,29.56 40.47,59.95 61.3,91.18 21.1,31.66 40.83,58.71 60.46,92 20.46,34.68 38.98,58.3 59.46,92.97 18.27,30.92 50.03,65.25 59.2,99.63l49.07 -236.81c37.41,-297.73 10.73,-779.4 -38.16,-1070 -14.93,-88.79 -31.12,-179.5 -49.47,-268.15 -35.3,-170.47 -82.49,-335.16 -136.9,-498.35 -97.82,-293.34 -237.11,-618.55 -395,-881.84l-182.93 -293.5c-110.79,-166.19 -310.23,-436.94 -451.86,-583.6l-273.27 -285.73c-15.36,-15.38 -24.58,-26.48 -42.39,-40.2 -19.75,-15.18 -28.7,-21.26 -41.79,-40.8 14.74,-22 139.66,-135.17 195.39,-198.47l155.54 -162.07c257.45,-292.32 435.85,-543.87 638.06,-880.18l114.22 -209.75c18.74,-37.47 34.99,-70.24 52.97,-105.85 9.48,-18.78 14.24,-30.9 23.54,-52.67 83.38,-195.32 133.63,-294.94 205.93,-511.91 138.94,-416.97 240.59,-911.38 240.59,-1360.23 0,-202.1 3.03,-406.88 -29.87,-605.39l-20.96 -118.79c-27.16,18.19 -71.1,100.8 -92.6,136.07l-408.32 589.03c-22.72,30.4 -42.96,55.01 -66.25,86.22 -79.2,106.15 -224.89,290.89 -311.06,381.34l-70.16 82.31c-114.41,136.64 -405.53,439.74 -526.92,546.64 -66.1,58.21 -128.4,133.88 -199.05,188.45 -56.6,43.69 -104.47,99.47 -160.56,144.37l-336.77 279.39c-171.16,136.36 -347.16,270.84 -529.36,391.75 -62.52,41.5 -118.35,83.59 -181.71,123.2 -33.85,21.17 -59.32,37.44 -92.69,59.78 -616.21,412.39 -1491.95,823.52 -2180.34,1053.05 -78.31,26.13 -151.83,52.09 -231.09,73.84 -68.57,18.82 -176.83,61.95 -247.74,63.52zm27995.22 -3703.47l-0.25 298.81c0.43,35.39 6.54,40.44 6.84,75.75 0.84,97.97 14.54,197.51 25.18,292.45 43.74,390.9 144.64,782.58 290.42,1145.22 67.83,168.7 140.35,333.01 224.04,493.79 97.84,187.94 208.61,372.45 333.1,543.55 112.2,154.21 225.11,306.64 351.52,448.87 26.58,29.9 53.27,56.34 79.29,85.88 14.74,16.7 17.88,24.39 34.91,41.32 65.27,64.96 128.88,144.3 199.54,200.66 21.37,17.04 67.38,62.23 81.64,83.52 -11.63,17.38 -21.76,25.72 -38.1,38.13 -45.2,34.29 -166.01,157.07 -199.63,200.58l-151.3 166.31c-27.01,28.87 -49.17,54.52 -73.81,85.01 -24.24,30.01 -47.24,56 -72.23,86.58 -287.03,351.32 -474.12,676.18 -669.76,1083.51 -143.71,299.18 -248.18,631.68 -318.2,958.64 -85.53,399.31 -103.2,674.87 -103.2,1084.73 0,147.92 13.48,294.5 38.87,437.56 3.57,20.11 10.17,36.5 11.96,57.93l12.69 0c11.44,-42.83 92.42,-147.95 116.37,-188.55 20.19,-34.21 38.75,-59.99 60.24,-92.23 162.57,-243.89 336.52,-478.07 520.17,-705.85l467.45 -529.9c15.87,-16.49 18.8,-25.05 34.68,-41.54 73.9,-76.78 231.41,-241.5 307.57,-302.26 48.3,-38.53 205.07,-196.39 280.44,-259.52 17.08,-14.3 24.72,-20.52 41.1,-35.12 217.93,-194.13 453.34,-371.08 688.54,-543.84 116.57,-85.64 236.57,-174.86 360.8,-249.03l189.64 -121.64c63.6,-41.06 122.92,-76.06 189.06,-115.86 112.31,-67.53 226.71,-137.17 343.57,-196.38 152.07,-77.05 300.3,-169.58 458.7,-233.71l208.43 -96.49c375.51,-174.98 827.7,-348.72 1234.44,-455.32l90.99 -23.35c31.75,-7.26 13.85,6.95 29.73,-14.74 -84.24,-1.87 -395.24,-109.52 -474.03,-135.8l-337.18 -120.2c-428.22,-167.13 -658.73,-277.62 -1064.9,-478.74 -160.85,-79.65 -335.08,-181.22 -489.01,-273.29 -34.29,-20.51 -60.87,-37.75 -94.46,-57.98 -34.59,-20.83 -63.69,-39.87 -98.43,-60.4 -65.33,-38.61 -122.32,-80.98 -185.95,-118.96 -63.22,-37.76 -123.09,-83.81 -185.78,-125.48 -242.72,-161.36 -472.52,-344.02 -698.45,-527.59l-328.43 -287.75c-82.8,-66.05 -315.96,-298.24 -393.21,-375.43l-149.23 -155.68c-48.1,-54.61 -102.4,-105.94 -147.26,-164.03 -13.62,-17.63 -23.18,-23.65 -36.97,-39.26l-104.97 -123.72c-213.47,-239.63 -422.72,-519.18 -599.88,-784.95 -18.47,-27.72 -228.91,-357.95 -246.47,-369.7 -2.67,32.02 -13.94,77.49 -20.02,113.39 -20.74,122.58 -30.81,252.98 -30.81,382.1zm-13055.85 3625.65l1893.03 1896.21 1896.19 -1893.03 -1893.03 -1896.2 -1896.19 1893.02z"/>
  </g>
 </g>
</svg>
